<svg width="24" height="22" viewBox="0 0 24 22" fill="none" xmlns="http://www.w3.org/2000/svg">
<path d="M23.555 21.9997H0.444066C0.198371 21.9997 0 21.8381 0 21.6394L0.565942 1.75995H23.4341L24 21.6394C23.9987 21.839 23.8007 21.9997 23.555 21.9997Z" fill="white"/>
<path d="M16.6029 4.98662C17.0567 4.98662 17.4249 4.65807 17.4249 4.25311C17.4249 3.84845 17.057 3.5199 16.6029 3.5199C16.1491 3.5199 15.7812 3.84815 15.7812 4.25311C15.7812 4.65807 16.1491 4.98662 16.6029 4.98662ZM7.39745 4.98662C7.85124 4.98662 8.21913 4.65807 8.21913 4.25311C8.21913 3.84845 7.85124 3.5199 7.39745 3.5199C6.94366 3.5199 6.57544 3.84815 6.57544 4.25311C6.57544 4.65807 6.94333 4.98662 7.39745 4.98662Z" fill="#75A101"/>
<path d="M11.9763 13.2483C9.20329 13.2483 6.94763 10.9925 6.94763 8.21875V4.82296C6.94763 4.63302 7.12007 4.47931 7.33303 4.47931C7.54599 4.47931 7.71843 4.63332 7.71843 4.82296V8.21875C7.71843 10.6132 9.62824 12.5603 11.9763 12.5603C14.3233 12.5603 16.2341 10.6132 16.2341 8.21875V4.82296C16.2341 4.63302 16.4066 4.47931 16.6195 4.47931C16.8325 4.47931 17.0049 4.63332 17.0049 4.82296V8.21875C17.0049 10.9922 14.7493 13.248 11.9763 13.248V13.2483Z" fill="#B5D65E"/>
<path d="M20.916 0L23.4452 1.75995H0.56543L3.08429 0H20.916Z" fill="white" fill-opacity="0.7"/>
</svg>
