<svg width="35" height="20" viewBox="0 0 35 20" fill="none" xmlns="http://www.w3.org/2000/svg">
<path d="M3.18182 0H23.8636L28.6364 6.66667H31.8182C33.5841 6.66667 35 8.15 35 10V15H31.8182C31.8182 16.3261 31.3153 17.5979 30.4203 18.5355C29.5252 19.4732 28.3113 20 27.0455 20C25.7796 20 24.5657 19.4732 23.6706 18.5355C22.7756 17.5979 22.2727 16.3261 22.2727 15H12.7273C12.7273 16.3261 12.2244 17.5979 11.3294 18.5355C10.4343 19.4732 9.22035 20 7.95455 20C6.68874 20 5.47478 19.4732 4.57972 18.5355C3.68466 17.5979 3.18182 16.3261 3.18182 15H0V3.33333C0 1.48333 1.41591 0 3.18182 0ZM2.38636 2.5V6.66667H15.1136V2.5H2.38636ZM17.5 2.5V6.66667H25.6773L22.6705 2.5H17.5ZM7.95455 12.5C7.32164 12.5 6.71466 12.7634 6.26713 13.2322C5.8196 13.7011 5.56818 14.337 5.56818 15C5.56818 15.663 5.8196 16.2989 6.26713 16.7678C6.71466 17.2366 7.32164 17.5 7.95455 17.5C8.58745 17.5 9.19443 17.2366 9.64196 16.7678C10.0895 16.2989 10.3409 15.663 10.3409 15C10.3409 14.337 10.0895 13.7011 9.64196 13.2322C9.19443 12.7634 8.58745 12.5 7.95455 12.5ZM27.0455 12.5C26.4126 12.5 25.8056 12.7634 25.358 13.2322C24.9105 13.7011 24.6591 14.337 24.6591 15C24.6591 15.663 24.9105 16.2989 25.358 16.7678C25.8056 17.2366 26.4126 17.5 27.0455 17.5C27.6784 17.5 28.2853 17.2366 28.7329 16.7678C29.1804 16.2989 29.4318 15.663 29.4318 15C29.4318 14.337 29.1804 13.7011 28.7329 13.2322C28.2853 12.7634 27.6784 12.5 27.0455 12.5Z" fill="#B5D65E"/>
</svg>
